<svg xmlns="http://www.w3.org/2000/svg" width="96" height="96" fill="none" viewBox="0 0 96 96" id="briefcase">
  <path fill="#FFDE32" stroke="#000" stroke-width="5" d="M19 86H77C81.9706 86 86 81.9706 86 77V42C86 37.0294 81.9706 33 77 33H19C14.0294 33 10 37.0294 10 42V77C10 81.9706 14.0294 86 19 86Z"></path>
  <path stroke="#000" stroke-linecap="round" stroke-width="5" d="M64 26L64 18C64 13.0294 59.9706 9 55 9L41 9C36.0294 9 32 13.0294 32 18L32 26"></path>
  <path fill="#FFDE32" stroke="#000" stroke-width="5" d="M10 29C10 24.0294 14.0294 20 19 20H77C81.9706 20 86 24.0294 86 29V43.4553C86 47.686 83.0533 51.3456 78.92 52.2481L49.92 58.5807C48.6549 58.857 47.3451 58.857 46.08 58.5807L17.08 52.2481C12.9467 51.3456 10 47.686 10 43.4553V29Z"></path>
  <path fill="#fff" stroke="#000" stroke-width="5" d="M58 57L58.1723 75.7428C58.1814 76.7282 59.4597 77.1078 60.0051 76.2871L66.2683 66.8624C66.6639 66.2671 67.5384 66.2671 67.934 66.8624L74.1671 76.2419C74.7152 77.0666 76 76.6786 76 75.6885L76 53L58 57Z"></path>
</svg>
